PathFileType	4	(X/Y/Z)	C:/Users/beibeiliu/ov580/test_trc\sequence.23_training_dense_right.trc
DataRate	CameraRate	NumFrames	NumMarkers	Units	OrigDataRate	OrigDataStartFrame	OrigNumFrames
120	120	14	19	mm	120	1	59
Frame#	Time	ThumbCMC			ThumbMCP			ThumbIP			ThumbTip			IndexMCP			IndexPIP			IndexTip			MiddleMCP			MiddlePIP			MiddleTip			RingMCP			RingPIP			RingTip			PinkyMCP			PinkyPIP			PinkyTip			BackHand1			BackHand2			BackHand3	
		X0	Y0	Z0	X1	Y1	Z1	X2	Y2	Z2	X3	Y3	Z3	X4	Y4	Z4	X5	Y5	Z5	X6	Y6	Z6	X7	Y7	Z7	X8	Y8	Z8	X9	Y9	Z9	X10	Y10	Z10	X11	Y11	Z11	X12	Y12	Z12	X13	Y13	Z13	X14	Y14	Z14	X15	Y15	Z15	X16	Y16	Z16	X17	Y17	Z17	X18	Y18	Z18	
0	0	141.439	36.8053	126.427	133.59	44.2109	95.2285	143.187	50.765	68.5728	152.196	55.0067	48.6871	176.176	50.1625	60.1015	172.482	34.7178	35.0035	169.453	22.7906	15.7482	193.976	36.8339	59.6723	186.307	25.1721	37.2982	183.427	7.16532	12.9328	205.162	24.0112	64.5543	201.851	11.5818	42.6097	199.523	-2.72722	18.984	215.236	13.4633	76.3101	213.825	2.44656	55.2134	213.633	-8.30461	34.1721	204.102	36.1541	120.936	192.794	32.012	151.062	172.706	50.7438	131.5	
1	0.00833333	133.364	31.7077	121.348	125.73	28.2136	97.4514	132.722	31.485	66.631	135.028	31.9282	45.6739	163.522	32.6191	57.669	157.646	13.7199	34.5599	155.317	-11.9525	22.2395	179.624	22.7669	58.7869	172.378	0.678971	36.0412	166.689	-23.9012	20.4208	193.323	10.1313	62.4424	194.249	-10.1067	48.6583	180.058	-31.4954	30.015	206.293	1.88776	78.841	203.083	-16.4079	57.7913	189.402	-33.5774	42.204	194.98	30.8919	117.999	185.693	30.8666	148.366	164.604	47.4419	124.549	
2	0.0166667	121.869	21.4468	128.068	116.738	12.2885	99.4357	117.286	10.2218	70.0381	123.136	6.79901	49.6143	149.583	12.8446	58.0589	141.382	-7.82342	41.3341	138.603	-38.1573	38.7908	165.607	0.816415	56.0253	157.134	-23.0535	42.6383	147.449	-54.7599	39.6358	183.771	-7.75902	65.9881	176.488	-29.6133	54.2516	159.594	-57.3563	53.0615	195.878	-12.6207	79.0653	189.578	-35.6139	67.244	170.768	-54.9225	62.6577	186.913	22.4385	114.352	182.67	27.1453	143.859	157.002	38.9271	123.375	
3	0.025	112.161	15.07	130.726	100.558	2.39655	109.029	101.911	-4.63422	78.0261	102.112	-11.6651	56.9511	129.692	-1.02124	63.3821	118.993	-30.9608	50.9881	115.478	-58.4627	61.0225	150.915	-15.9004	62.0294	137.567	-45.6435	54.743	124.707	-71.6746	68.476	163.912	-24.4981	67.6693	152.393	-52.9545	64.5705	132.146	-70.0431	80.3564	178.757	-28.2003	83.1926	168.331	-51.8657	76.5243	141.093	-69.3926	87.5764	173.554	14.224	111.886	172.442	19.6191	144.484	143.804	30.1389	119.01	
4	0.0333333	105.724	19.6994	133.043	91.2546	6.7485	114.835	85.9203	-2.38958	86.6389	85.3346	-13.2784	65.1699	113.678	-10.0908	65.9026	96.9556	-32.9415	59.5522	89.3599	-58.4422	78.1387	128.366	-20.333	67.9602	108.826	-51.4853	67.9604	94.3677	-68.3589	90.1174	143.529	-32.9283	76.2436	121.654	-59.5395	77.4129	103.424	-67.6575	103.241	159.836	-41.2357	89.0554	136.76	-64.3977	86.3581	113.826	-66.175	106.984	164.457	4.09735	113.951	170.8	12.5206	142.191	143.339	24.3874	122.998	
5	0.0416667	107.613	27.9231	133.136	90.2161	18.8566	117.447	79.8904	11.0643	94.989	74.9438	-0.143032	73.345	100.737	-3.88542	70.432	81.6101	-28.6549	68.0043	60.7432	-43.4772	87.5183	114.819	-22.5867	72.2294	90.1785	-45.3619	74.8841	70.7717	-54.1853	100.527	122.189	-37.1286	78.5255	100.846	-57.3101	85.3481	81.5906	-54.3032	110.115	137.714	-50.2831	90.8501	113.75	-61.8423	92.5854	89.027	-56.5502	118.424	160.008	-7.97842	111.416	165.339	5.01074	137.782	142.941	21.2105	117.993	
6	0.05	115.361	34.3533	136.332	93.3127	35.3563	119.911	79.8853	30.0324	93.4326	71.3033	20.916	75.02	96.4708	6.31842	73.6032	68.1667	-6.84344	71.3598	50.8266	-24.9375	89.0057	103.032	-12.4243	73.8862	74.9861	-27.5129	77.9117	52.2815	-35.4115	102.294	110.339	-34.1876	81.3668	83.6542	-45.265	88.7785	63.8518	-41.5563	112.646	122.081	-43.9216	94.2165	92.8472	-53.9072	100.429	71.4367	-40.9124	121.625	154.922	-7.20626	112.656	163.844	2.2458	139.083	144.68	22.9995	118.924	
7	0.0583333	128.939	46.5274	140.553	108.381	52.1146	119.6	94.825	50.2534	94.4911	84.1168	44.2873	73.0606	99.4438	25.0902	74.0728	69.401	15.8008	74.1051	43.6225	7.54523	85.2878	99.6401	1.11876	75.5961	70.1071	-3.22937	77.6542	39.6763	-9.66781	94.2088	101.534	-20.3092	82.737	73.4837	-24.4395	87.4915	50.6666	-15.8449	102.289	111.999	-33.1808	94.9618	84.0383	-34.0491	97.0428	57.5361	-23.3576	114.646	152.251	-6.96511	108.117	166.524	-0.883867	140.195	153.88	27.7956	121.079	
8	0.0666667	144.906	47.6421	135.525	128.756	61.8343	118.495	117.343	62.2371	94.6773	105.901	62.0566	73.0937	111.479	36.7766	74.1216	84.2836	40.1787	71.0415	59.2926	36.8616	75.7115	107.431	14.7065	75.2131	75.8582	19.2883	75.3453	51.6051	22.9537	79.8472	106.34	-2.87161	82.0873	78.8801	0.0777012	82.7698	48.9286	9.25008	90.2343	105.553	-21.5649	93.9668	80.3943	-12.4245	94.2912	55.9488	-4.75408	104.071	153.76	-11.5919	110.426	166.109	-8.67551	138.725	164.192	22.1005	122.782	
9	0.075	163.044	50.3454	139.505	148.209	64.3764	116.515	140.44	68.2138	91.8297	131.744	69.0555	68.0148	130.533	41.0824	71.3312	109.541	53.3128	66.9313	78.5843	57.2394	68.23	120.622	26.7412	71.0559	93.3007	34.8039	69.0883	70.0844	44.3531	67.577	115.035	5.78082	79.8922	91.6152	15.7423	76.7839	65.7511	28.4936	75.1074	108.55	-12.5989	91.6887	88.1997	0.273868	87.7125	65.8945	13.3221	84.6935	158.022	-6.99265	114.215	167.054	-11.3327	139.916	175.95	15.7559	124.624	
10	0.0833333	174.661	42.6408	137.649	166.205	61.2122	113.651	160.804	67.8639	88.4619	154.741	66.9427	65.2101	155.354	39.669	70.3533	129.914	55.8013	59.7796	104.76	59.3001	57.1939	138.154	24.8201	69.0445	116.145	35.0264	62.1926	91.9177	50.5021	56.7953	125.598	8.32327	74.5668	107.316	19.5211	68.4481	85.9787	34.8596	61.3985	117.966	-8.73866	87.8112	102.399	5.85447	79.6751	80.3938	20.2956	68.7936	165.618	-11.6117	117.059	173.382	-15.8932	145.432	183.859	10.8212	128.292	
11	0.0916667	186.264	34.8325	141.707	179.158	45.6765	115.487	180.615	53.5517	84.3482	179.087	55.7461	60.7699	174.511	29.4941	67.4658	153.032	42.0803	53.7015	128.689	53.8079	46.8711	160.962	14.48	67.5972	137.609	28.038	54.2954	118.276	45.55	43.9903	143.614	-0.633495	70.8278	125.773	10.8934	61.6822	107.655	29.8024	48.8367	134.777	-11.2259	80.874	117.203	0.0443368	70.136	100.255	11.0959	57.4608	172.719	-23.2629	114.112	178.066	-24.0167	146.557	195.933	2.49195	126.771	
12	0.1	201.366	21.3166	140.453	196.886	28.5698	113.126	200.396	32.174	87.3169	203.338	31.4971	63.512	195.465	7.49721	64.5674	176.85	18.0955	49.2963	159.75	30.1818	38.2267	179.577	-4.75219	62.8534	158.138	6.21843	48.1511	141.908	20.9111	34.2957	163.546	-19.055	68.8401	144.859	-8.71951	54.2103	134.006	8.42844	38.4725	151.382	-31.1696	79.8158	140.363	-18.4884	66.4102	127.228	-7.70978	48.3796	188.03	-39.3828	119.668	186.736	-36.7238	150.235	210.124	-15.4792	134.725	
13	0.108333	211.407	5.98584	141.01	213.71	14.3589	113.381	220.708	10.5867	88.5023	225.688	9.77616	67.3036	214.96	-16.9436	72.4104	201.083	-7.7557	49.251	182.347	4.54297	29.8975	199.276	-31.588	70.2297	185.512	-20.2335	49.152	168.299	-6.22719	25.4126	181.75	-40.807	71.1889	173.778	-28.926	54.735	160.014	-19.9102	35.8211	169.755	-51.2603	85.9784	160.22	-39.2317	64.6296	154.85	-32.3395	46.4047	199.313	-50.6219	130.78	195.674	-46.471	156.528	221.603	-26.5917	142.558	
